<svg xmlns="http://www.w3.org/2000/svg" viewBox="0 0 337.06 301.23"><defs><style>.cls-1{fill:#67cbf4;}.cls-2{fill:#476eb5;}</style></defs><title>Asset 10</title><g id="Layer_2" data-name="Layer 2"><g id="Layer_1-2" data-name="Layer 1"><path class="cls-1" d="M123,295.59c-20.84,8.67-53.41,8.59-69.7-9C31.18,262.66,63.53,233,58,154c-2.9-41.21-13.73-62-4.31-103.25,4.19-18.32,8.54-36.28,23.24-45.6C100-9.46,128,10.24,172,23.26c92.73,27.42,139.42-9.49,158.75,18.5,20.42,29.57-11.53,100.09-55.93,138.1-41,35.07-72.61,25.4-109.28,70.56C149,270.8,144,286.82,123,295.59Z"/><path class="cls-2" d="M147,229.33c-5.63,3.5-45.14,28-83.46,16.35C24.56,233.84-3.41,187.54.34,145,5.62,85,71.77,58.06,90.68,50.36c14.87-6,52.88-18.95,99.38-7.74,50.07,12.06,78,44.36,92.07,61.09,14.85,17.67,44.62,53.11,32.7,77-10.81,21.67-50.32,22.69-54.64,22.8-32.27.83-39.94-16-63.67-11.19C174.55,196.79,173.9,212.69,147,229.33Z"/><circle class="cls-2" cx="216.52" cy="237.29" r="12.69"/><ellipse class="cls-2" cx="243.2" cy="224.39" rx="4.09" ry="4.52"/><ellipse class="cls-2" cx="27.87" cy="50.79" rx="10.76" ry="12.05"/><ellipse class="cls-2" cx="47.45" cy="22.83" rx="5.81" ry="5.16"/></g></g></svg>