<?xml version="1.0" encoding="UTF-8"?>
<svg xmlns="http://www.w3.org/2000/svg" xmlns:xlink="http://www.w3.org/1999/xlink" width="337px" height="301px" viewBox="0 0 253 226" version="1.1">
<g id="surface1">
<path style=" stroke:none;fill-rule:nonzero;fill:rgb(40.392157%,79.607843%,95.686275%);fill-opacity:1;" d="M 92.34375 221.769531 C 76.710938 228.273438 52.277344 228.214844 40.058594 215.015625 C 23.464844 197.0625 47.730469 174.808594 43.582031 115.539062 C 41.410156 84.621094 33.285156 69.023438 40.351562 38.074219 C 43.492188 24.332031 46.757812 10.855469 57.785156 3.863281 C 75.089844 -7.097656 96.09375 7.683594 129.101562 17.449219 C 198.667969 38.023438 233.691406 10.332031 248.191406 31.332031 C 263.511719 53.515625 239.542969 106.425781 206.234375 134.941406 C 175.476562 161.253906 151.765625 153.996094 124.257812 187.878906 C 111.847656 203.167969 108.097656 215.1875 92.34375 221.769531 Z M 92.34375 221.769531 "/>
<path style=" stroke:none;fill-rule:nonzero;fill:rgb(27.843137%,43.137255%,70.980392%);fill-opacity:1;" d="M 110.347656 172.054688 C 106.125 174.683594 76.484375 193.0625 47.738281 184.324219 C 18.5 175.441406 -2.484375 140.703125 0.328125 108.789062 C 4.289062 63.773438 53.914062 43.558594 68.097656 37.78125 C 79.253906 33.28125 107.769531 23.566406 142.652344 31.976562 C 180.210938 41.023438 201.164062 65.257812 211.71875 77.808594 C 222.859375 91.066406 245.191406 117.65625 236.25 135.578125 C 228.140625 151.835938 198.5 152.601562 195.261719 152.683594 C 171.050781 153.308594 165.296875 140.679688 147.496094 144.289062 C 131.015625 147.644531 130.527344 159.570312 110.347656 172.054688 Z M 110.347656 172.054688 "/>
<path style=" stroke:none;fill-rule:nonzero;fill:rgb(27.843137%,43.137255%,70.980392%);fill-opacity:1;" d="M 172.019531 178.027344 C 172.019531 183.285156 167.757812 187.550781 162.5 187.550781 C 157.242188 187.550781 152.980469 183.285156 152.980469 178.027344 C 152.980469 172.769531 157.242188 168.507812 162.5 168.507812 C 167.757812 168.507812 172.019531 172.769531 172.019531 178.027344 Z M 172.019531 178.027344 "/>
<path style=" stroke:none;fill-rule:nonzero;fill:rgb(27.843137%,43.137255%,70.980392%);fill-opacity:1;" d="M 185.582031 168.351562 C 185.582031 166.476562 184.210938 164.960938 182.515625 164.960938 C 180.820312 164.960938 179.445312 166.476562 179.445312 168.351562 C 179.445312 170.222656 180.820312 171.742188 182.515625 171.742188 C 184.210938 171.742188 185.582031 170.222656 185.582031 168.351562 Z M 185.582031 168.351562 "/>
<path style=" stroke:none;fill-rule:nonzero;fill:rgb(27.843137%,43.137255%,70.980392%);fill-opacity:1;" d="M 29.054688 38.105469 C 29.054688 33.113281 25.4375 29.066406 20.980469 29.066406 C 16.523438 29.066406 12.910156 33.113281 12.910156 38.105469 C 12.910156 43.097656 16.523438 47.144531 20.980469 47.144531 C 25.4375 47.144531 29.054688 43.097656 29.054688 38.105469 Z M 29.054688 38.105469 "/>
<path style=" stroke:none;fill-rule:nonzero;fill:rgb(27.843137%,43.137255%,70.980392%);fill-opacity:1;" d="M 40.027344 17.128906 C 40.027344 14.992188 38.078125 13.257812 35.667969 13.257812 C 33.261719 13.257812 31.3125 14.992188 31.3125 17.128906 C 31.3125 19.265625 33.261719 21 35.667969 21 C 38.078125 21 40.027344 19.265625 40.027344 17.128906 Z M 40.027344 17.128906 "/>
</g>
</svg>
