<?xml version="1.0" encoding="UTF-8"?>
<svg xmlns="http://www.w3.org/2000/svg" xmlns:xlink="http://www.w3.org/1999/xlink" width="280px" height="267px" viewBox="0 0 210 201" version="1.1">
<g id="surface1">
<path style=" stroke:none;fill-rule:nonzero;fill:rgb(99.607843%,92.156863%,32.156863%);fill-opacity:1;" d="M 131.453125 199.542969 C 81.230469 193.050781 51.667969 148.714844 42.464844 134.996094 C 32.347656 119.796875 24.664062 107.957031 24.066406 90.652344 C 22.800781 54.515625 53.636719 30.644531 56.730469 28.316406 C 62.71875 23.824219 80.332031 10.628906 103.671875 12.171875 C 139.5 14.546875 160.578125 49.828125 169.753906 65.121094 C 184.726562 90.121094 186.710938 112.539062 189.28125 141.339844 C 191.339844 164.453125 192.320312 177.625 183.648438 187.898438 C 169.65625 204.476562 141.289062 200.816406 131.453125 199.542969 Z M 131.453125 199.542969 "/>
<path style=" stroke:none;fill-rule:nonzero;fill:rgb(94.901961%,41.176471%,31.764706%);fill-opacity:1;" d="M 33.132812 157.011719 C 26.5 153.511719 20.441406 149.019531 15.164062 143.691406 C 6.410156 134.703125 0.359375 122.722656 0.0234375 110.144531 C -0.246094 100.476562 2.851562 90.894531 7.90625 82.65625 C 13.089844 74.195312 20.472656 66.929688 29.496094 62.78125 C 46.367188 55.046875 65.960938 59.039062 84.515625 58.703125 C 105.117188 58.289062 128.742188 52.324219 146.539062 41.703125 C 150.058594 39.601562 153.21875 36.695312 154.933594 32.972656 C 157.628906 27.125 156.648438 18.257812 164.347656 16.574219 C 170.15625 15.308594 176.992188 18.355469 181.890625 21.226562 C 190.609375 26.4375 197.320312 34.441406 200.933594 43.9375 C 206.796875 59.265625 204.992188 76.628906 199.679688 92.160156 C 189.566406 121.722656 166.734375 146.597656 138.339844 159.632812 C 109.945312 172.667969 76.398438 173.808594 46.988281 163.175781 C 42.222656 161.464844 37.59375 159.40625 33.132812 157.011719 Z M 33.132812 157.011719 "/>
<path style=" stroke:none;fill-rule:nonzero;fill:rgb(99.607843%,92.156863%,32.156863%);fill-opacity:1;" d="M 74.941406 171.621094 C 74.941406 181.039062 67.304688 188.671875 57.890625 188.671875 C 48.472656 188.671875 40.839844 181.039062 40.839844 171.621094 C 40.839844 162.203125 48.472656 154.570312 57.890625 154.570312 C 67.304688 154.570312 74.941406 162.203125 74.941406 171.621094 Z M 74.941406 171.621094 "/>
<path style=" stroke:none;fill-rule:nonzero;fill:rgb(99.607843%,92.156863%,32.156863%);fill-opacity:1;" d="M 153.464844 7.621094 C 153.464844 3.527344 150.25 0.214844 146.285156 0.214844 C 142.320312 0.214844 139.105469 3.527344 139.105469 7.621094 C 139.105469 11.710938 142.320312 15.023438 146.285156 15.023438 C 150.25 15.023438 153.464844 11.710938 153.464844 7.621094 Z M 153.464844 7.621094 "/>
<path style=" stroke:none;fill-rule:nonzero;fill:rgb(99.607843%,92.156863%,32.156863%);fill-opacity:1;" d="M 210 121.144531 C 210 116.804688 207.890625 113.289062 205.289062 113.289062 C 202.6875 113.289062 200.582031 116.804688 200.582031 121.144531 C 200.582031 125.484375 202.6875 129 205.289062 129 C 207.890625 129 210 125.484375 210 121.144531 Z M 210 121.144531 "/>
</g>
</svg>
