<svg xmlns="http://www.w3.org/2000/svg" viewBox="0 0 280.45 267.86"><defs><style>.cls-1{fill:#feeb52;}.cls-2{fill:#f26951;}</style></defs><title>Asset 7</title><g id="Layer_2" data-name="Layer 2"><g id="Layer_1-2" data-name="Layer 1"><path class="cls-1" d="M175.55,266.2C108.48,257.53,69,198.32,56.71,180,43.2,159.7,32.94,143.89,32.14,120.78,30.45,72.52,71.63,40.64,75.76,37.53c8-6,31.52-23.62,62.69-21.56,47.85,3.17,76,50.29,88.25,70.71,20,33.39,22.65,63.33,26.08,101.79,2.75,30.87,4.06,48.46-7.52,62.18C226.57,272.79,188.69,267.9,175.55,266.2Z"/><path class="cls-2" d="M44.25,209.4a98.3,98.3,0,0,1-24-17.79c-11.69-12-19.77-28-20.22-44.8C-.33,133.9,3.81,121.1,10.56,110.1c6.92-11.3,16.78-21,28.83-26.54,22.53-10.33,48.7-5,73.48-5.45,27.51-.55,59.06-8.52,82.83-22.7,4.7-2.81,8.92-6.69,11.21-11.66,3.6-7.81,2.29-19.65,12.57-21.9,7.76-1.69,16.89,2.38,23.43,6.21a60.34,60.34,0,0,1,25.43,30.33c7.83,20.47,5.42,43.66-1.67,64.4-13.51,39.48-44,72.7-81.92,90.11s-82.72,18.93-122,4.73A136.91,136.91,0,0,1,44.25,209.4Z"/><circle class="cls-1" cx="77.31" cy="228.91" r="22.77"/><ellipse class="cls-1" cx="195.36" cy="9.89" rx="9.59" ry="9.89"/><ellipse class="cls-1" cx="274.16" cy="161.5" rx="6.29" ry="10.49"/></g></g></svg>